{
  "asset": {
    "generator": "Khronos glTF Blender I/O v0.9.36",
    "version": "2.0"
  },
  "scene": 0,
  "scenes": [
    {
      "name": "Scene",
      "nodes": [
        0
      ]
    }
  ],
  "nodes": [
    {
      "mesh": 0,
      "name": "NurbsPath.003"
    }
  ],
  "materials": [
    {
      "doubleSided": true,
      "name": "Tree trunk",
      "pbrMetallicRoughness": {
        "baseColorFactor": [
          0.8000000715255737,
          0.10490351915359497,
          0.027876468375325203,
          1
        ],
        "metallicFactor": 0,
        "roughnessFactor": 0.5
      }
    },
    {
      "doubleSided": true,
      "name": "Material",
      "pbrMetallicRoughness": {
        "baseColorFactor": [
          0.3335665166378021,
          0.8000000715255737,
          0,
          1
        ],
        "metallicFactor": 0,
        "roughnessFactor": 0.5
      }
    }
  ],
  "meshes": [
    {
      "name": "NurbsPath.003",
      "primitives": [
        {
          "attributes": {
            "POSITION": 0,
            "NORMAL": 1
          },
          "indices": 2,
          "material": 0
        },
        {
          "attributes": {
            "POSITION": 3,
            "NORMAL": 4
          },
          "indices": 5,
          "material": 1
        }
      ]
    }
  ],
  "accessors": [
    {
      "bufferView": 0,
      "componentType": 5126,
      "count": 666,
      "max": [
        4.215708255767822,
        7.243621826171875,
        2.9445345401763916
      ],
      "min": [
        -3.6312096118927,
        -0.2873856723308563,
        -3.234245538711548
      ],
      "type": "VEC3"
    },
    {
      "bufferView": 1,
      "componentType": 5126,
      "count": 666,
      "type": "VEC3"
    },
    {
      "bufferView": 2,
      "componentType": 5123,
      "count": 3582,
      "type": "SCALAR"
    },
    {
      "bufferView": 3,
      "componentType": 5126,
      "count": 582,
      "max": [
        5.212646484375,
        8.706453323364258,
        3.822326898574829
      ],
      "min": [
        -5.286139488220215,
        4.5392913818359375,
        -5.822134017944336
      ],
      "type": "VEC3"
    },
    {
      "bufferView": 4,
      "componentType": 5126,
      "count": 582,
      "type": "VEC3"
    },
    {
      "bufferView": 5,
      "componentType": 5123,
      "count": 3480,
      "type": "SCALAR"
    }
  ],
  "bufferViews": [
    {
      "buffer": 0,
      "byteLength": 7992,
      "byteOffset": 0
    },
    {
      "buffer": 0,
      "byteLength": 7992,
      "byteOffset": 7992
    },
    {
      "buffer": 0,
      "byteLength": 7164,
      "byteOffset": 15984
    },
    {
      "buffer": 0,
      "byteLength": 6984,
      "byteOffset": 23148
    },
    {
      "buffer": 0,
      "byteLength": 6984,
      "byteOffset": 30132
    },
    {
      "buffer": 0,
      "byteLength": 6960,
      "byteOffset": 37116
    }
  ],
  "buffers": [
    {
      "uri": "data:application/octet-stream;base64,",
      "byteLength": 44076
    }
  ]
}